<svg xmlns="http://www.w3.org/2000/svg" viewBox="0 0 1000 650" width="100%" height="100%">
  <defs>
    <!-- Gradientes Metálicos Cromados (Cromado Automotriz con línea de horizonte) -->
    <linearGradient id="chrome3D" x1="0%" y1="0%" x2="0%" y2="100%">
      <stop offset="0%" stop-color="#ffffff"/>
      <stop offset="18%" stop-color="#e2e8f0"/>
      <stop offset="48%" stop-color="#64748b"/>
      <stop offset="50%" stop-color="#1e293b"/>
      <stop offset="52%" stop-color="#334155"/>
      <stop offset="70%" stop-color="#94a3b8"/>
      <stop offset="90%" stop-color="#cbd5e1"/>
      <stop offset="100%" stop-color="#475569"/>
    </linearGradient>

    <!-- Bisel Cromado Superior -->
    <linearGradient id="chromeBevelTop" x1="0%" y1="0%" x2="0%" y2="100%">
      <stop offset="0%" stop-color="#ffffff"/>
      <stop offset="40%" stop-color="#cbd5e1"/>
      <stop offset="70%" stop-color="#64748b"/>
      <stop offset="100%" stop-color="#1e293b"/>
    </linearGradient>

    <!-- Bisel Cromado Inferior -->
    <linearGradient id="chromeBevelBottom" x1="0%" y1="0%" x2="0%" y2="100%">
      <stop offset="0%" stop-color="#f8fafc"/>
      <stop offset="30%" stop-color="#94a3b8"/>
      <stop offset="50%" stop-color="#334155"/>
      <stop offset="85%" stop-color="#e2e8f0"/>
      <stop offset="100%" stop-color="#475569"/>
    </linearGradient>

    <!-- Rojo Metálico Brillante -->
    <linearGradient id="redShield" x1="0%" y1="0%" x2="0%" y2="100%">
      <stop offset="0%" stop-color="#ff2222"/>
      <stop offset="30%" stop-color="#dc2626"/>
      <stop offset="70%" stop-color="#991b1b"/>
      <stop offset="100%" stop-color="#450a0a"/>
    </linearGradient>

    <linearGradient id="redStars" x1="0%" y1="0%" x2="0%" y2="100%">
      <stop offset="0%" stop-color="#ff4444"/>
      <stop offset="50%" stop-color="#dc2626"/>
      <stop offset="100%" stop-color="#7f1d1d"/>
    </linearGradient>

    <!-- Filtros de Sombra 3D -->
    <filter id="shadow3D" x="-15%" y="-15%" width="130%" height="130%">
      <feDropShadow dx="0" dy="5" stdDeviation="5" flood-color="#000000" flood-opacity="0.85"/>
    </filter>

    <filter id="neonRed" x="-30%" y="-30%" width="160%" height="160%">
      <feGaussianBlur stdDeviation="3.5" result="glow"/>
      <feComposite in="SourceGraphic" in2="glow" operator="over"/>
    </filter>
  </defs>


  <g transform="translate(0, 10)">
    <!-- ================= 1. ESCUDO ROJO SUPERIOR (TEJADO) ================= -->
    <path d="M 155 130 L 500 68 L 845 130 L 815 168 L 500 110 L 185 168 Z" 
          fill="url(#redShield)" filter="url(#shadow3D)" stroke="#450a0a" stroke-width="2"/>
    <!-- Brillo en la arista superior roja -->
    <path d="M 155 130 L 500 68 L 845 130" fill="none" stroke="#fca5a5" stroke-width="3"/>
    <path d="M 500 68 L 500 110" fill="none" stroke="#fecaca" stroke-width="3"/>

    <!-- ================= 2. ESCUDO ROJO INFERIOR ================= -->
    <path d="M 140 330 Q 240 470 500 525 Q 760 470 860 330 L 830 330 Q 745 455 500 490 Q 255 455 170 330 Z" 
          fill="url(#redShield)" filter="url(#shadow3D)" stroke="#450a0a" stroke-width="2"/>
    <path d="M 140 330 Q 240 470 500 525 Q 760 470 860 330" fill="none" stroke="#ef4444" stroke-width="2"/>
    <path d="M 500 490 L 500 525" fill="none" stroke="#fca5a5" stroke-width="3"/>

    <!-- ================= 3. MARCO CROMADO SUPERIOR CON ALAS ================= -->
    <path d="M 125 186 L 205 186 L 245 158 L 500 102 L 755 158 L 795 186 L 875 186 L 860 200 L 785 200 L 750 174 L 500 120 L 250 174 L 215 200 L 140 200 Z" 
          fill="url(#chromeBevelTop)" stroke="#090d16" stroke-width="2" filter="url(#shadow3D)"/>
    <!-- Brillo blanco superior cromado -->
    <path d="M 125 186 L 500 102 L 875 186" fill="none" stroke="#ffffff" stroke-width="2.5" opacity="0.95"/>
    <path d="M 500 102 L 500 120" fill="none" stroke="#ffffff" stroke-width="3"/>

    <!-- ================= 4. MARCO CROMADO INFERIOR ================= -->
    <path d="M 115 330 Q 225 455 500 486 Q 775 455 885 330 L 862 318 Q 762 430 500 458 Q 238 430 138 318 Z" 
          fill="url(#chromeBevelBottom)" stroke="#090d16" stroke-width="2" filter="url(#shadow3D)"/>
    <!-- Brillo blanco en arco inferior cromado -->
    <path d="M 138 318 Q 238 430 500 458 Q 762 430 862 318" fill="none" stroke="#ffffff" stroke-width="3" opacity="0.95"/>
    <path d="M 500 458 L 500 486" fill="none" stroke="#ffffff" stroke-width="3.5"/>

    <!-- ================= 5. LAS 5 ESTRELLAS ROJAS ================= -->
    <g filter="url(#shadow3D)">
      <!-- Central (grande) -->
      <polygon points="500,128 507,144 525,144 510,155 516,171 500,161 484,171 490,155 475,144 493,144" fill="url(#redStars)" stroke="#fecaca" stroke-width="0.6"/>
      <!-- Media Izquierda -->
      <polygon points="440,148 445,161 459,161 448,170 452,183 440,175 428,183 432,170 421,161 435,161" fill="url(#redStars)" stroke="#fecaca" stroke-width="0.6"/>
      <!-- Media Derecha -->
      <polygon points="560,148 565,161 579,161 568,170 572,183 560,175 548,183 552,170 541,161 555,161" fill="url(#redStars)" stroke="#fecaca" stroke-width="0.6"/>
      <!-- Extrema Izquierda -->
      <polygon points="380,166 384,176 395,176 386,183 389,193 380,187 371,193 374,183 365,176 376,176" fill="url(#redStars)" stroke="#fecaca" stroke-width="0.6"/>
      <!-- Extrema Derecha -->
      <polygon points="620,166 624,176 635,176 626,183 629,193 620,187 611,193 614,183 605,176 616,176" fill="url(#redStars)" stroke="#fecaca" stroke-width="0.6"/>
    </g>

    <!-- ================= 6. TEXTO "SPEED" EXACTO Y CORREGIDO ================= -->
    <g id="SPEED-TEXT" filter="url(#shadow3D)">
      <!-- Letra S -->
      <path d="M 235 228 C 215 228 175 238 160 252 C 145 268 140 286 148 300 C 158 316 182 322 215 328 C 248 334 256 340 256 348 C 256 358 242 366 220 366 C 185 366 160 354 140 338 L 132 364 C 156 382 188 392 222 392 C 255 392 284 382 292 364 C 298 350 292 334 278 322 C 265 312 245 306 215 300 C 182 294 175 288 175 280 C 175 270 190 256 222 256 C 250 256 272 264 286 276 L 294 248 C 275 234 252 228 235 228 Z" 
            fill="url(#chrome3D)" stroke="#090d16" stroke-width="2.5" />
      <path d="M 235 231 C 217 231 180 240 166 254 C 153 268 148 284 154 296 C 163 310 185 316 217 322 C 248 328 259 336 259 346 C 259 354 245 362 222 362 C 190 362 166 351 148 337" 
            fill="none" stroke="#ffffff" stroke-width="2" opacity="0.9"/>

      <!-- Letra P -->
      <path d="M 315 232 L 390 232 C 425 232 448 250 448 280 C 448 310 425 328 390 328 L 352 328 L 352 388 L 315 388 Z M 352 258 L 352 302 L 388 302 C 406 302 418 294 418 280 C 418 266 406 258 388 258 Z" 
            fill="url(#chrome3D)" stroke="#090d16" stroke-width="2.5" />
      <path d="M 317 235 L 388 235 C 420 235 442 251 442 278" fill="none" stroke="#ffffff" stroke-width="2" opacity="0.9"/>

      <!-- Primera Letra E -->
      <path d="M 470 232 L 565 232 L 565 260 L 507 260 L 507 294 L 555 294 L 555 320 L 507 320 L 507 360 L 568 360 L 568 388 L 470 388 Z" 
            fill="url(#chrome3D)" stroke="#090d16" stroke-width="2.5" />
      <path d="M 472 235 L 562 235 L 562 257 L 510 257 L 510 297 L 552 297" fill="none" stroke="#ffffff" stroke-width="2" opacity="0.9"/>

      <!-- Segunda Letra E -->
      <path d="M 590 232 L 685 232 L 685 260 L 627 260 L 627 294 L 675 294 L 675 320 L 627 320 L 627 360 L 688 360 L 688 388 L 590 388 Z" 
            fill="url(#chrome3D)" stroke="#090d16" stroke-width="2.5" />
      <path d="M 592 235 L 682 235 L 682 257 L 630 257 L 630 297 L 672 297" fill="none" stroke="#ffffff" stroke-width="2" opacity="0.9"/>

      <!-- Letra D (CERRADA Y EXACTA AL LOGO ORIGINAL) -->
      <path d="M 708 232 L 778 232 C 832 232 875 262 875 310 C 875 358 832 388 778 388 L 708 388 Z M 744 260 L 744 360 L 775 360 C 808 360 838 340 838 310 C 838 280 808 260 775 260 Z" 
            fill="url(#chrome3D)" stroke="#090d16" stroke-width="2.5" />
      <path d="M 710 235 L 775 235 C 825 235 868 263 868 308" fill="none" stroke="#ffffff" stroke-width="2" opacity="0.9"/>
    </g>

    <!-- ================= 7. SILUETA MOTO CROSS EN ROJO BRILLANTE ================= -->
    <g id="MOTO-CROSS" transform="translate(450, 360) scale(2.0)" filter="url(#shadow3D)">
      <!-- Neón rojo en ruedas -->
      <circle cx="10" cy="22" r="8" fill="none" stroke="#ff0000" stroke-width="2.2" filter="url(#neonRed)"/>
      <circle cx="40" cy="22" r="8" fill="none" stroke="#ff0000" stroke-width="2.2" filter="url(#neonRed)"/>

      <!-- Ruedas -->
      <circle cx="10" cy="22" r="6.5" fill="#000" stroke="#ff2222" stroke-width="2.5"/>
      <circle cx="40" cy="22" r="6.5" fill="#000" stroke="#ff2222" stroke-width="2.5"/>
      <circle cx="10" cy="22" r="2" fill="#ff6666"/>
      <circle cx="40" cy="22" r="2" fill="#ff6666"/>

      <!-- Chasis, Horquilla y Basculante -->
      <path d="M 10 22 L 20 16 L 27 16 L 40 22" fill="none" stroke="#ff1111" stroke-width="3" stroke-linecap="round"/>
      <path d="M 22 17 L 31 5 L 34 5" fill="none" stroke="#ff2222" stroke-width="2.8" stroke-linecap="round"/>
      <path d="M 29 4 L 35 6" fill="none" stroke="#ff5555" stroke-width="3" stroke-linecap="round"/>
      <!-- Asiento y Plásticos Cross -->
      <path d="M 16 12 C 20 10 24 10 29 12 L 32 15 L 20 16 Z" fill="#ff0000"/>
      <!-- Guardabarros delantero y trasero -->
      <path d="M 30 11 Q 36 10 42 13" fill="none" stroke="#ff2222" stroke-width="2.2" stroke-linecap="round"/>
      <path d="M 17 12 Q 12 13 8 16" fill="none" stroke="#ff2222" stroke-width="2.2" stroke-linecap="round"/>
      <!-- Bloque motor -->
      <rect x="20" y="16" width="7" height="6" rx="1.5" fill="#cc0000"/>
    </g>

    <!-- ================= 8. TEXTO INFERIOR "— MOTOS Y REPUESTOS —" ================= -->
    <g id="BOTTOM-TEXT" filter="url(#shadow3D)">
      <!-- Guión izquierdo cromado -->
      <path d="M 135 550 L 195 550" stroke="url(#chromeHoriz)" stroke-width="5" stroke-linecap="round"/>
      <path d="M 135 549 L 195 549" stroke="#ffffff" stroke-width="2" stroke-linecap="round" opacity="0.9"/>

      <!-- Texto central cromado -->
      <text x="500" y="562" 
            text-anchor="middle" 
            font-family="'Montserrat', 'Arial Black', sans-serif" 
            font-size="38" 
            font-weight="900" 
            letter-spacing="12" 
            fill="url(#chrome3D)"
            stroke="#090d16"
            stroke-width="1.8">
        MOTOS Y REPUESTOS
      </text>
      <!-- Brillo sobre el texto -->
      <text x="500" y="560" 
            text-anchor="middle" 
            font-family="'Montserrat', 'Arial Black', sans-serif" 
            font-size="38" 
            font-weight="900" 
            letter-spacing="12" 
            fill="none"
            stroke="#ffffff"
            stroke-width="0.8"
            opacity="0.9">
        MOTOS Y REPUESTOS
      </text>

      <!-- Guión derecho cromado -->
      <path d="M 805 550 L 865 550" stroke="url(#chromeHoriz)" stroke-width="5" stroke-linecap="round"/>
      <path d="M 805 549 L 865 549" stroke="#ffffff" stroke-width="2" stroke-linecap="round" opacity="0.9"/>
    </g>
  </g>
</svg>
